<?xml version="1.0" standalone="no"?><!DOCTYPE svg PUBLIC "-//W3C//DTD SVG 1.1//EN" "http://www.w3.org/Graphics/SVG/1.1/DTD/svg11.dtd"><svg class="icon" width="200px" height="200.00px" viewBox="0 0 1024 1024" version="1.1" xmlns="http://www.w3.org/2000/svg"><path d="M295.9 706l50.7-3.8 331-0.2 50.9 3.7 83.3 253.2H198.1z" fill="#FFFFFF" /><path d="M346.6 702.2c-14.8-6.7-20.6-18.4-20.4-34.4 0.4-37.8 0.1-75.6 0.1-113.4v-16.5c-1.2-0.1-2.3-0.2-3.5-0.2-3.4 27.9-6.8 55.8-10.4 83.7-2.3 18.2-15.7 30-31.8 28.3-16.9-1.8-27.6-16.7-25.2-35.5 1.3-10.1 2.8-20.2 4-30.4 2.9-24.3 5.6-48.5 8.4-72.8-1.3-0.3-2.5-0.7-3.8-1-3.1 10-6.1 20-9.3 30-5.7 18.2-20 27.4-35.5 23.1-16.7-4.6-24.9-20.2-19.6-38.9 22.3-77.9 44.9-155.7 67.3-233.6 13.3 13.3 29.8 17.7 48.1 19.2 23 1.9 45.9 5.5 68.8 8.4v310.4l-0.6 38c0 26.9-9.2 35.9-36.6 35.6zM757.1 290.3c22.6 77.9 45.3 155.7 67.6 233.7 5.4 19-2.9 34.4-19.5 39-15.6 4.3-29.6-4.8-35.5-23.1-3.2-10.1-6.6-20.3-10.1-30.3-0.2-0.4-1.8-0.4-3.8-0.7 4.2 34.4 8.3 68.5 12.7 102.5 2.8 21.3-6.9 36.4-25.1 38.3-17 1.7-29.3-10.8-31.7-31.6-3.1-26.8-6.7-53.5-12.9-80.3-0.2 5.1-0.7 10.1-0.7 15.2-0.1 38.3-0.3 76.7 0.1 115 0.2 16-5.5 27.7-20.7 34.1-26.8 0.6-36.3-8.8-36.4-35.9-0.1-11.6-0.4-23.2-0.6-34.8 0.2-6.1 0.5-12.2 0.5-18.3l0.3-297.1c16.6-1.3 33.4-1.7 49.9-4 23.1-3.5 48.3-1.4 65.9-21.7z" fill="#404041" /><path d="M227 902.2c40-8 78.2-14.2 115.6-23.5 19.3-4.8 31.7-2.1 43.7 14.5 16 22.3 34.6 42.6 53.7 65.6H55.5c7.4-20.8 14.6-41.4 22-61.9 10.4-28.8 21.3-57.4 31.6-86.3 9.3-26.3 27.2-43.7 53.1-53.5 38.2-14.5 76.2-29.4 114.3-44.1 5.1-2 10.2-3.8 19.4-7.1-23.6 67.2-45.9 130.7-68.9 196.3zM797.5 902.1c-23-65.5-45.3-128.8-69-196.5 18.1 7 32.1 12.4 46.1 17.9 30 11.6 60.1 23.2 90 34.8 25.3 9.9 42.1 27.6 51.2 53.4 15.6 44.3 32 88.4 48.1 132.5 1.7 4.7 3 9.6 4.6 15H584.3c17.9-21.9 35.7-40.8 50.2-62 13.5-19.7 27.7-24.3 51-17.9 35.8 9.8 72.8 15.1 112 22.8z" fill="#E9C54F" /><path d="M346.6 702.2c27.5 0.3 36.7-8.6 36.9-35.7 0.1-12.7 0.4-25.3 0.6-38 22.1 17.6 44 35.4 66.4 52.6 3.8 2.9 9 4.9 13.8 5.4 16 1.6 32.2 2.4 48.3 3.4v269.6c-43 2.4-43.1 2.4-60.9-35.2-35.2-74-70.2-148.1-105.1-222.1z" fill="#B28667" /><path d="M512.4 959.6V690l42.7-0.3c11.6-6.8 23.7-12.9 34.7-20.6 17.3-12.1 33.9-25.2 50.8-37.9 0.2 11.6 0.5 23.2 0.6 34.8 0.1 27.1 9.7 36.5 36.4 35.9-37.8 79.7-76 159.3-112.9 239.4-6.8 14.8-14.9 21.3-30.8 18.8-7.1-1-14.4-0.4-21.5-0.5z" fill="#916249" /><path d="M222.8 232.7c-21.5-26.6-10.1-53.3 1.5-78.7 13.9-30.7 40.5-49.1 69.8-63.6 41.5-20.6 86.1-30.6 131.7-35.8 28.7-3.3 57.8-3.6 86.7-5.2 0 28.2-0.1 56.3-0.1 84.5-24 1.1-48 2.1-71.9 3.3-45.5 2.4-90.3 8.8-133.1 24.9-36.4 13.5-68.1 33.2-84.6 70.6z" fill="#52A89A" /><path d="M512.3 133.9c0-28.2 0.1-56.3 0.1-84.5C585.8 50.9 658.1 58 726 88.9c27.3 12.4 53 28.5 67.6 55.4 9.4 17.4 14.9 37.8 18 57.4 1.5 9.4-6.4 20.4-10.1 30.7-10.2-24.7-28.6-42.2-51.4-54.8-58.4-32.3-122.4-39.7-187.7-40.8-16.7-1-33.4-1.9-50.1-2.9z" fill="#458F82" /><path d="M512.3 133.9c16.7 1 33.4 1.9 50.1 2.9-12.7 0.1-25.4 0.7-38.1 0.2-9.5-0.4-12.3 3.3-12.1 12.5 0.5 23.4 0.1 46.7 0.1 70.1-47.3 2.2-94.8 3.2-141.9 7-42.6 3.5-83.2 15-117.1 43.2-10.1-12.4-20.3-24.7-30.4-37.1 16.5-37.4 48.2-57.1 84.5-70.7 42.8-16 87.6-22.5 133.1-24.9 23.8-1.1 47.8-2.1 71.8-3.2z" fill="#EDD970" /><path d="M512.3 219.6c0-23.4 0.3-46.7-0.1-70.1-0.2-9.1 2.7-12.9 12.1-12.5 12.7 0.5 25.4-0.1 38.1-0.2 65.3 1.1 129.3 8.5 187.8 40.8 22.8 12.6 41.2 30 51.4 54.8-10.2 12.4-20.4 24.8-30.7 37.2-17.3-9.4-33.8-21.2-52.1-27.8-66.9-23.9-136.8-21.8-206.5-20.9v-1.3z" fill="#E9C54F" /><path d="M253.2 269.8c33.9-28.2 74.5-39.7 117.1-43.2 47.2-3.9 94.6-4.8 141.9-7v1.3c0 33.4 0.1 66.9 0.1 100.3-42.8-1-85.6-2-128.4-3.1-22.9-2.9-45.8-6.6-68.8-8.4-18.3-1.5-34.8-5.8-48.1-19.2-4.5-6.9-9.2-13.8-13.8-20.7z" fill="#DA6159" /><path d="M512.4 321.1c0-33.4-0.1-66.9-0.1-100.3 69.6-0.8 139.6-2.9 206.5 20.9 18.3 6.6 34.8 18.4 52.1 27.8l-13.8 20.7c-17.6 20.3-42.8 18.3-65.9 21.5-16.5 2.3-33.2 2.7-49.9 4-43 1.9-86 3.8-129.1 5.7l0.2-0.3z" fill="#C34036" /><path d="M384 318.1c42.8 1 85.6 2 128.4 3.1l-0.1 0.4v208.6h-71.1c1.7 18.3 10.9 29.1 23.7 33.9 14.9 5.5 31.4 6.9 47.2 10 0.1 28.9 0 57.8 0.2 86.7 0.3 29.9-4.1 25.5 25.5 26.3 5.8 0.1 11.5 1.8 17.3 2.8l-42.7 0.3c-16.1-1.1-32.2-1.8-48.3-3.4-4.8-0.5-10-2.5-13.8-5.4-22.3-17.3-44.3-35-66.4-52.6 0.1-103.8 0.1-207.2 0.1-310.7z m28.1 71.9c6.2 20.6 17.3 29 33.1 26.5 13.9-2.2 24.4-14.8 24.2-29.1-0.2-15.4-9.3-24.4-28-26.8-2.1 16.4-12.1 26.1-29.3 29.4z" fill="#BF987A" /><path d="M512.2 530.1V321.5c43-1.9 86-3.8 129.1-5.7-0.1 99-0.1 198.1-0.3 297.1 0 6.1-0.4 12.2-0.5 18.3-16.9 12.7-33.5 25.8-50.8 37.9-11 7.7-23.1 13.8-34.7 20.6-5.8-1-11.5-2.7-17.3-2.8-29.5-0.7-25.2 3.7-25.5-26.3-0.3-28.9-0.2-57.8-0.2-86.7 15.8-3.1 32.4-4.2 47.3-9.9 13-5 23.4-15.5 23.1-34-24.3 0.1-47.3 0.1-70.2 0.1z m43-140c6 20.4 17.6 28.8 33.6 26.3 13.3-2.1 24.5-16 23.9-29.6-0.6-14.1-11.5-24.3-28.6-26.3-2.1 16.5-12 26.2-28.9 29.6z" fill="#B28566" /><path d="M512.2 530.1h70.3c0.2 18.5-10.2 29-23.1 34-14.8 5.7-31.4 6.8-47.3 9.9-15.8-3.2-32.3-4.5-47.2-10-12.9-4.8-22.1-15.6-23.7-33.9h71z" fill="#7B4A34" /><path d="M412.1 390c17.2-3.3 27.2-12.9 29.2-29.4 18.7 2.4 27.8 11.4 28 26.8 0.2 14.3-10.3 26.9-24.2 29.1-15.7 2.5-26.8-5.9-33-26.5z" fill="#424141" /><path d="M555.2 390.1c16.9-3.4 26.8-13.1 28.9-29.7 17.1 2.1 28 12.3 28.6 26.3 0.6 13.7-10.6 27.5-23.9 29.6-16 2.6-27.6-5.8-33.6-26.2z" fill="#424040" /></svg>